<?xml version="1.0" standalone="no"?>
<!DOCTYPE svg PUBLIC "-//W3C//DTD SVG 20010904//EN"
 "http://www.w3.org/TR/2001/REC-SVG-20010904/DTD/svg10.dtd">
<svg version="1.0" xmlns="http://www.w3.org/2000/svg"
 width="1280.000000pt" height="720.000000pt" viewBox="0 0 1280.000000 720.000000"
 preserveAspectRatio="xMidYMid meet">
<metadata>
Created by potrace 1.16, written by Peter Selinger 2001-2019
</metadata>
<g transform="translate(0.000000,720.000000) scale(0.100000,-0.100000)"
fill="#000000" stroke="none">
<path d="M12230 4499 c-324 -15 -775 -136 -1253 -335 -99 -42 -610 -283 -636
-301 -2 -2 -2 -6 2 -9 3 -3 111 15 240 40 355 69 450 80 697 80 264 1 347 -18
457 -101 90 -69 111 -221 55 -390 -32 -94 -89 -215 -124 -266 -11 -16 -18 -31
-15 -33 7 -7 407 256 537 353 149 109 266 211 380 329 159 165 229 284 230
391 0 91 -34 144 -122 189 -97 50 -215 63 -448 53z"/>
<path d="M1084 3567 c-138 -111 -439 -353 -668 -537 l-418 -335 322 -3 c246
-2 325 1 339 10 10 7 129 112 265 232 135 121 256 226 268 234 l21 15 -5 -246
-4 -247 285 0 286 0 101 88 c55 48 174 152 263 232 90 80 169 149 177 153 12
7 14 -29 14 -233 l0 -240 290 0 290 0 0 540 0 540 -221 0 -221 0 -42 -32 c-22
-18 -169 -138 -326 -266 -157 -129 -292 -238 -301 -242 -14 -8 -17 8 -22 148
-4 86 -7 210 -7 275 l0 117 -217 0 -218 0 -251 -203z"/>
<path d="M4607 3538 c-4 -128 -7 -371 -7 -540 l0 -308 480 0 480 0 0 130 0
130 -190 0 -190 0 0 410 0 410 -283 0 -284 0 -6 -232z"/>
<path d="M3272 3561 c-140 -48 -225 -188 -239 -392 -11 -160 43 -318 139 -403
85 -77 72 -76 735 -76 l583 0 0 130 0 130 -383 0 c-353 0 -385 1 -417 18 -99
53 -115 228 -28 309 44 41 65 43 454 43 l374 0 0 130 0 130 -582 0 c-538 -1
-587 -2 -636 -19z"/>
<path d="M5740 3450 l0 -130 440 0 440 0 0 -60 0 -60 -402 0 c-398 0 -403 -1
-442 -23 -74 -41 -111 -157 -95 -292 10 -79 41 -141 88 -172 l34 -23 552 0
c629 0 608 -2 700 82 92 84 135 200 135 366 0 192 -78 345 -208 409 l-57 28
-592 3 -593 3 0 -131z m848 -390 l32 0 0 -61 0 -61 -31 6 c-17 3 -116 6 -220
6 l-189 0 0 55 0 54 93 4 c50 2 135 3 187 1 52 -2 110 -4 128 -4z"/>
<path d="M7391 3562 c-19 -9 -44 -30 -55 -45 -20 -27 -21 -42 -24 -428 l-3
-399 291 0 290 0 0 315 0 315 155 0 155 0 0 130 0 130 -387 0 c-350 0 -391 -2
-422 -18z"/>
<path d="M8522 3564 c-166 -44 -271 -231 -259 -459 11 -204 113 -365 255 -405
23 -6 254 -10 620 -10 l582 0 0 130 0 130 -445 0 -445 0 0 60 0 60 415 0 414
0 37 33 c47 40 73 99 81 179 7 82 -11 165 -48 221 -53 80 -29 77 -626 76 -426
0 -538 -3 -581 -15z m738 -304 l0 -60 -215 0 -215 0 0 60 0 60 215 0 215 0 0
-60z"/>
<path d="M9900 3317 c0 -145 -3 -346 -7 -445 l-6 -182 291 0 292 0 0 316 0
317 78 -7 c154 -14 227 -43 269 -105 22 -33 23 -41 23 -277 l0 -244 258 0 257
0 -3 347 -3 348 -27 49 c-30 54 -65 85 -138 118 l-49 23 -617 3 -618 3 0 -264z"/>
</g>
</svg>
